<?xml version="1.0" encoding="UTF-8"?>
<!DOCTYPE svg PUBLIC "-//W3C//DTD SVG 1.1//EN" "http://www.w3.org/Graphics/SVG/1.1/DTD/svg11.dtd">
<svg xmlns="http://www.w3.org/2000/svg" version="1.1" width="213px" height="213px" style="shape-rendering:geometricPrecision; text-rendering:geometricPrecision; image-rendering:optimizeQuality; fill-rule:evenodd; clip-rule:evenodd" xmlns:xlink="http://www.w3.org/1999/xlink">
<g><path style="opacity:1" fill="#f1f191" d="M 209.5,108.5 C 206.662,104.148 203.995,99.6477 201.5,95C 205.35,96.144 206.183,94.9773 204,91.5C 200.407,86.6385 197.073,81.6385 194,76.5C 189.483,72.1526 184.65,68.1526 179.5,64.5C 177.797,63.1097 177.13,61.6097 177.5,60C 170.676,57.0909 164.342,53.4243 158.5,49C 147.966,45.2666 137.299,41.9333 126.5,39C 112.077,36.7537 97.7439,37.2537 83.5,40.5C 68.8296,40.4017 56.3296,46.0684 46,57.5C 43.7599,60.9527 42.4265,64.6194 42,68.5C 42.7083,67.6195 43.5416,66.9528 44.5,66.5C 42.4818,70.4203 41.1484,74.587 40.5,79C 41.3279,79.9147 42.3279,80.5814 43.5,81C 40.2776,83.9556 37.9442,87.4556 36.5,91.5C 37.3635,90.537 38.0302,90.537 38.5,91.5C 36.6265,94.7244 36.2932,98.0577 37.5,101.5C 40.3174,99.1833 42.9841,96.6833 45.5,94C 51.6242,94.0248 57.9575,94.0248 64.5,94C 58.0386,92.6076 52.7053,89.4409 48.5,84.5C 49.5294,84.7036 50.5294,84.2036 51.5,83C 51.1667,82 50.8333,81 50.5,80C 51.9842,78.4263 53.6508,77.093 55.5,76C 53.144,75.8446 50.8107,75.8446 48.5,76C 54.419,72.2293 59.0856,73.896 62.5,81C 62.3333,81.5 62.1667,82 62,82.5C 59.6903,79.1681 56.6903,78.1681 53,79.5C 53.564,82.7318 55.564,84.7318 59,85.5C 60.3261,85.2451 61.3261,84.5784 62,83.5C 63.015,87.0827 64.1817,90.416 65.5,93.5C 67.0207,93.8797 68.6874,94.0464 70.5,94C 69.244,94.4169 68.5774,95.2502 68.5,96.5C 66.1975,99.4759 63.8641,102.476 61.5,105.5C 58.8908,106.443 56.8908,108.11 55.5,110.5C 52.9556,110.104 50.7889,110.771 49,112.5C 45.9723,111.677 42.8056,111.343 39.5,111.5C 37.9707,111.529 36.804,112.196 36,113.5C 35.2917,112.619 34.4584,111.953 33.5,111.5C 33.7989,109.396 33.4656,107.396 32.5,105.5C 31.5713,106.689 31.238,108.022 31.5,109.5C 28.8695,128.776 34.3695,145.443 48,159.5C 48.3333,159.167 48.6667,158.833 49,158.5C 49.8373,160.007 51.0039,160.507 52.5,160C 47.0929,151.872 45.4263,143.039 47.5,133.5C 48.4776,133.023 49.3109,132.357 50,131.5C 50.4479,133.409 49.6145,134.576 47.5,135C 56.4852,141.181 66.3185,143.014 77,140.5C 78.7742,143.295 81.2742,145.128 84.5,146C 86.8688,148.57 88.8688,151.404 90.5,154.5C 89.5934,157.421 89.2601,160.421 89.5,163.5C 89.3284,164.492 89.6618,165.158 90.5,165.5C 89.5615,167.756 89.5615,170.09 90.5,172.5C 94.1351,172.656 94.4685,173.822 91.5,176C 93.1075,175.981 94.7741,175.815 96.5,175.5C 96.5,177.167 96.5,178.833 96.5,180.5C 99.8248,179.84 103.158,179.174 106.5,178.5C 108.228,178.59 109.894,178.923 111.5,179.5C 118.471,175.683 125.304,176.016 132,180.5C 132.864,177.331 134.197,177.665 136,181.5C 139.396,181.41 142.73,181.41 146,181.5C 152.448,184.974 158.948,188.307 165.5,191.5C 158.142,196.849 150.142,201.182 141.5,204.5C 141.214,202.067 140.548,202.067 139.5,204.5C 138.486,205.674 137.153,206.34 135.5,206.5C 134.418,204.661 133.585,202.661 133,200.5C 132.667,202.5 132.333,204.5 132,206.5C 131.667,205.5 131.333,204.5 131,203.5C 130.722,204.416 130.222,205.082 129.5,205.5C 127.857,205.52 126.524,204.853 125.5,203.5C 124.702,203.957 124.369,204.624 124.5,205.5C 123.437,209.333 122.604,209.333 122,205.5C 121.536,206.094 121.369,206.761 121.5,207.5C 120.678,205.611 119.845,203.611 119,201.5C 118.722,202.416 118.222,203.082 117.5,203.5C 117.368,200.993 116.368,200.326 114.5,201.5C 112.402,200.516 110.402,200.849 108.5,202.5C 107.534,198.828 106.034,198.828 104,202.5C 103.23,201.402 102.397,201.402 101.5,202.5C 101.663,200.143 101.497,197.81 101,195.5C 100.667,195.833 100.333,196.167 100,196.5C 99.6667,195.5 99.3333,194.5 99,193.5C 98,194.833 97,196.167 96,197.5C 95.3992,195.641 94.5659,195.308 93.5,196.5C 91.2712,197.055 89.6046,198.389 88.5,200.5C 90.8017,204.415 92.8017,204.415 94.5,200.5C 95.1515,199.909 95.8182,199.243 96.5,198.5C 100.379,198.967 101.046,200.967 98.5,204.5C 97.3586,206.549 97.3586,208.549 98.5,210.5C 95.3915,210.736 92.3915,210.403 89.5,209.5C 89.7852,207.712 89.4519,206.045 88.5,204.5C 87.4777,204.855 86.811,205.522 86.5,206.5C 84.6522,206.386 82.6522,206.719 80.5,207.5C 76.7858,207.41 73.4525,206.41 70.5,204.5C 71.7804,203.069 73.4471,202.402 75.5,202.5C 76.1332,193.668 78.2999,185.334 82,177.5C 83.892,175.946 85.392,174.112 86.5,172C 85.549,169.337 86.049,166.837 88,164.5C 88.8372,160.705 88.5039,157.039 87,153.5C 84.2187,161.729 80.8854,169.729 77,177.5C 74.0569,179.375 70.8902,180.875 67.5,182C 65.291,184.378 62.9576,186.545 60.5,188.5C 61,188.833 61.5,189.167 62,189.5C 65.603,187.576 69.4363,186.576 73.5,186.5C 73.7845,188.415 73.4511,190.081 72.5,191.5C 72.5,190.167 72.5,188.833 72.5,187.5C 69.1476,187.784 66.1476,188.95 63.5,191C 61.6133,193.95 59.6133,196.784 57.5,199.5C 56.8333,199.167 56.1667,198.833 55.5,198.5C 59.557,191.037 58.8904,190.703 53.5,197.5C 20.4359,177.049 2.43591,147.382 -0.5,108.5C -0.5,106.833 -0.5,105.167 -0.5,103.5C 2.9333,59.469 24.6,27.969 64.5,9C 109.623,-7.00951 149.123,1.82383 183,35.5C 201.295,56.562 210.128,80.8953 209.5,108.5 Z"/></g>
<g><path style="opacity:1" fill="#2e4a13" d="M 209.5,108.5 C 209.878,117.558 208.544,126.224 205.5,134.5C 204.883,134.611 204.383,134.944 204,135.5C 200.303,133.899 196.803,132.232 193.5,130.5C 194.774,129.811 194.774,128.977 193.5,128C 192.054,126.702 190.721,126.535 189.5,127.5C 182.756,126.926 182.089,125.093 187.5,122C 186.167,121 186.167,120 187.5,119C 185.606,117.899 184.939,116.566 185.5,115C 184.167,114.667 182.833,114.333 181.5,114C 184.107,113.363 186.44,112.196 188.5,110.5C 192.11,111.847 192.443,111.18 189.5,108.5C 189.709,107.914 190.043,107.414 190.5,107C 188.5,106.333 186.5,106.333 184.5,107C 187.063,107.763 187.063,108.263 184.5,108.5C 183.977,107.196 182.643,106.529 180.5,106.5C 178.5,107.333 176.834,107.166 175.5,106C 178.167,105.333 178.167,104.667 175.5,104C 176.833,103.667 178.167,103.333 179.5,103C 177.167,102.667 174.833,102.333 172.5,102C 173.167,101.667 173.833,101.333 174.5,101C 172.134,100.56 169.801,100.06 167.5,99.5C 168.88,98.8097 170.214,98.4764 171.5,98.5C 169.138,97.7285 166.804,96.8952 164.5,96C 167.121,95.0944 166.954,94.5944 164,94.5C 162.624,94.6842 161.791,95.3509 161.5,96.5C 157.865,96.3444 157.532,95.1777 160.5,93C 156.089,92.9833 151.923,92.1499 148,90.5C 146.739,90.7591 145.739,91.4258 145,92.5C 143.272,91.6477 143.105,90.6477 144.5,89.5C 145.376,89.6309 146.043,89.2975 146.5,88.5C 146.03,87.537 145.363,87.537 144.5,88.5C 143.338,87.3221 142.338,86.1554 141.5,85C 142.536,83.3831 143.703,83.2164 145,84.5C 147.167,82.5356 149.501,82.2022 152,83.5C 154.74,82.7178 157.574,82.2178 160.5,82C 155.837,81.4634 151.171,80.9634 146.5,80.5C 143.158,80.481 139.991,81.1476 137,82.5C 134.298,80.6923 132.298,81.6923 131,85.5C 130.316,86.7839 130.483,87.9505 131.5,89C 128.681,91.575 125.681,93.9083 122.5,96C 122.833,96.3333 123.167,96.6667 123.5,97C 119.5,98.5 115.5,100 111.5,101.5C 110.106,101.379 108.772,101.046 107.5,100.5C 107.5,101.5 107.5,102.5 107.5,103.5C 106.086,102.376 104.586,101.376 103,100.5C 100.692,100.638 98.6921,101.305 97,102.5C 95.642,99.6351 93.8086,99.1351 91.5,101C 93.9468,102.229 94.1135,103.729 92,105.5C 90.5611,103.725 89.5611,101.725 89,99.5C 88.3333,102.167 87.6667,102.167 87,99.5C 86.7679,100.737 86.2679,101.737 85.5,102.5C 85.5,102.833 85.5,103.167 85.5,103.5C 84.1667,104.167 84.1667,104.833 85.5,105.5C 86.7729,107.713 87.7729,110.046 88.5,112.5C 87.1667,113.167 87.1667,113.833 88.5,114.5C 88.3398,116.199 88.5065,117.866 89,119.5C 89.2492,118.376 89.7492,117.376 90.5,116.5C 91.5,117.833 92.5,119.167 93.5,120.5C 94.1667,120.167 94.8333,119.833 95.5,119.5C 96.3816,120.76 97.3816,121.926 98.5,123C 96.6751,124.466 96.1751,126.299 97,128.5C 98,126.5 99,124.5 100,122.5C 102.113,124.271 101.947,125.771 99.5,127C 100.191,128.067 100.691,129.234 101,130.5C 101.352,125.89 102.852,125.39 105.5,129C 104.167,130.84 104.334,131.34 106,130.5C 106.914,134.185 107.581,133.852 108,129.5C 108.914,133.185 109.581,132.852 110,128.5C 111,131.167 112,131.167 113,128.5C 113.29,130.044 113.956,131.377 115,132.5C 116.582,131.726 118.249,130.393 120,128.5C 122.943,129.24 123.109,130.24 120.5,131.5C 121,132.5 121.5,133.5 122,134.5C 123.333,134.5 124.667,134.5 126,134.5C 127.67,132.302 129.67,131.968 132,133.5C 134.237,132.944 136.237,131.944 138,130.5C 138.662,131.984 139.496,133.317 140.5,134.5C 141.239,134.631 141.906,134.464 142.5,134C 141.5,133 140.5,132 139.5,131C 139.833,130.833 140.167,130.667 140.5,130.5C 143.897,131.116 147.23,132.449 150.5,134.5C 150.918,135.222 151.584,135.722 152.5,136C 150.744,136.202 149.078,136.702 147.5,137.5C 148.025,138.192 148.692,138.692 149.5,139C 149.167,139.333 148.833,139.667 148.5,140C 150.757,139.563 153.09,139.063 155.5,138.5C 155.5,139.5 155.5,140.5 155.5,141.5C 151.901,141.262 151.567,142.262 154.5,144.5C 153.758,145.287 152.925,145.953 152,146.5C 149.395,145.186 146.895,145.186 144.5,146.5C 141.147,146.345 140.814,147.012 143.5,148.5C 144.585,150.587 146.251,151.92 148.5,152.5C 149.078,153.547 149.744,153.38 150.5,152C 149.619,151.292 148.953,150.458 148.5,149.5C 149.496,149.414 150.329,149.748 151,150.5C 151.333,149.5 151.667,148.5 152,147.5C 153.943,147.959 155.276,146.959 156,144.5C 157.487,145.253 157.654,146.086 156.5,147C 158.35,149.033 159.016,149.033 158.5,147C 162.5,146.333 162.5,145.667 158.5,145C 159,144.5 159.5,144 160,143.5C 162.754,143.925 165.587,144.925 168.5,146.5C 163.748,147.827 159.248,149.827 155,152.5C 154.586,152.043 154.086,151.709 153.5,151.5C 150.167,155.167 146.833,158.833 143.5,162.5C 144.62,164.596 146.12,164.93 148,163.5C 148.333,164.167 148.667,164.833 149,165.5C 150.667,164.167 152.333,164.167 154,165.5C 154.333,164.833 154.667,164.167 155,163.5C 155.667,164.833 156.333,164.833 157,163.5C 156.705,167.361 158.205,168.694 161.5,167.5C 162.298,167.957 162.631,168.624 162.5,169.5C 162.5,169.833 162.5,170.167 162.5,170.5C 161.063,171.722 159.563,171.722 158,170.5C 156.739,170.759 155.739,171.426 155,172.5C 154.333,168.5 153.667,168.5 153,172.5C 152.549,170.071 151.715,169.904 150.5,172C 151.84,174.179 151.507,174.679 149.5,173.5C 150.605,175.153 150.771,176.82 150,178.5C 150.915,177.672 151.581,176.672 152,175.5C 152.333,177.167 152.667,178.833 153,180.5C 154.016,179.366 154.683,179.699 155,181.5C 156.57,180.386 157.903,179.053 159,177.5C 159.915,178.328 160.581,179.328 161,180.5C 161.667,177.833 162.333,177.833 163,180.5C 164.284,179.428 164.617,178.095 164,176.5C 166.011,180.002 167.344,180.002 168,176.5C 169.067,177.191 170.234,177.691 171.5,178C 171.167,178.333 170.833,178.667 170.5,179C 171.854,180.294 173.188,180.46 174.5,179.5C 175.265,180.612 176.265,181.279 177.5,181.5C 173.817,185.18 169.817,188.514 165.5,191.5C 158.948,188.307 152.448,184.974 146,181.5C 142.73,181.41 139.396,181.41 136,181.5C 134.197,177.665 132.864,177.331 132,180.5C 125.304,176.016 118.471,175.683 111.5,179.5C 109.894,178.923 108.228,178.59 106.5,178.5C 103.158,179.174 99.8248,179.84 96.5,180.5C 96.5,178.833 96.5,177.167 96.5,175.5C 94.7741,175.815 93.1075,175.981 91.5,176C 94.4685,173.822 94.1351,172.656 90.5,172.5C 89.5615,170.09 89.5615,167.756 90.5,165.5C 92.8549,163.754 93.0216,161.754 91,159.5C 90.79,161.058 90.29,162.391 89.5,163.5C 89.2601,160.421 89.5934,157.421 90.5,154.5C 88.8688,151.404 86.8688,148.57 84.5,146C 81.2742,145.128 78.7742,143.295 77,140.5C 66.3185,143.014 56.4852,141.181 47.5,135C 49.6145,134.576 50.4479,133.409 50,131.5C 49.3109,132.357 48.4776,133.023 47.5,133.5C 45.4263,143.039 47.0929,151.872 52.5,160C 51.0039,160.507 49.8373,160.007 49,158.5C 48.6667,158.833 48.3333,159.167 48,159.5C 34.3695,145.443 28.8695,128.776 31.5,109.5C 31.5923,111.848 32.5923,113.514 34.5,114.5C 39.8437,114.666 45.1771,114.499 50.5,114C 53.5428,113.202 56.3761,112.035 59,110.5C 59.3333,110.833 59.6667,111.167 60,111.5C 60.9207,110.292 61.4207,108.958 61.5,107.5C 62.5063,107.062 62.5063,106.396 61.5,105.5C 63.3146,104.37 65.3146,103.704 67.5,103.5C 67.9926,101.194 68.3259,98.861 68.5,96.5C 68.5774,95.2502 69.244,94.4169 70.5,94C 68.6874,94.0464 67.0207,93.8797 65.5,93.5C 64.1817,90.416 63.015,87.0827 62,83.5C 61.3261,84.5784 60.3261,85.2451 59,85.5C 55.564,84.7318 53.564,82.7318 53,79.5C 56.6903,78.1681 59.6903,79.1681 62,82.5C 62.1667,82 62.3333,81.5 62.5,81C 59.0856,73.896 54.419,72.2293 48.5,76C 50.8107,75.8446 53.144,75.8446 55.5,76C 53.6508,77.093 51.9842,78.4263 50.5,80C 50.8333,81 51.1667,82 51.5,83C 50.5294,84.2036 49.5294,84.7036 48.5,84.5C 52.7053,89.4409 58.0386,92.6076 64.5,94C 57.9575,94.0248 51.6242,94.0248 45.5,94C 42.9841,96.6833 40.3174,99.1833 37.5,101.5C 36.2932,98.0577 36.6265,94.7244 38.5,91.5C 38.0302,90.537 37.3635,90.537 36.5,91.5C 37.9442,87.4556 40.2776,83.9556 43.5,81C 42.3279,80.5814 41.3279,79.9147 40.5,79C 41.1484,74.587 42.4818,70.4203 44.5,66.5C 43.5416,66.9528 42.7083,67.6195 42,68.5C 42.4265,64.6194 43.7599,60.9527 46,57.5C 56.3296,46.0684 68.8296,40.4017 83.5,40.5C 97.7439,37.2537 112.077,36.7537 126.5,39C 137.299,41.9333 147.966,45.2666 158.5,49C 164.342,53.4243 170.676,57.0909 177.5,60C 177.13,61.6097 177.797,63.1097 179.5,64.5C 184.65,68.1526 189.483,72.1526 194,76.5C 197.073,81.6385 200.407,86.6385 204,91.5C 206.183,94.9773 205.35,96.144 201.5,95C 203.995,99.6477 206.662,104.148 209.5,108.5 Z"/></g>
<g><path style="opacity:1" fill="#e9eb91" d="M 140.5,58.5 C 141.473,58.9867 142.473,59.4867 143.5,60C 141.843,60.7252 140.843,60.2252 140.5,58.5 Z"/></g>
<g><path style="opacity:1" fill="#98a464" d="M 120.5,58.5 C 120.735,57.9033 121.235,57.5699 122,57.5C 122.355,58.5091 123.188,59.1757 124.5,59.5C 125.735,59.2786 126.735,58.6119 127.5,57.5C 128.463,57.9698 128.463,58.6365 127.5,59.5C 127.013,60.4734 126.513,61.4734 126,62.5C 124.145,60.0166 122.311,60.0166 120.5,62.5C 115.322,61.3984 115.322,60.5651 120.5,60C 121.738,59.31 121.738,58.81 120.5,58.5 Z"/></g>
<g><path style="opacity:1" fill="#7a8952" d="M 73.5,53.5 C 73.8417,54.3382 74.5084,54.6716 75.5,54.5C 75.5,54.8333 75.5,55.1667 75.5,55.5C 72.2237,56.5921 68.8904,57.5921 65.5,58.5C 65.1667,58.3333 64.8333,58.1667 64.5,58C 65.3805,57.2917 66.0472,56.4584 66.5,55.5C 66.811,54.5222 67.4777,53.8555 68.5,53.5C 69.6956,53.8457 69.6956,54.3457 68.5,55C 69.1667,55.1667 69.8333,55.3333 70.5,55.5C 71.4764,54.8047 72.4764,54.138 73.5,53.5 Z"/></g>
<g><path style="opacity:1" fill="#e4e68b" d="M 66.5,55.5 C 66.0472,56.4584 65.3805,57.2917 64.5,58C 64.8333,58.1667 65.1667,58.3333 65.5,58.5C 68.8904,57.5921 72.2237,56.5921 75.5,55.5C 76.5676,56.4345 77.901,56.7678 79.5,56.5C 80.3984,57.1577 81.3984,57.8243 82.5,58.5C 81.9747,59.1924 81.3081,59.6924 80.5,60C 83.0766,61.2504 85.7433,61.5837 88.5,61C 85.9722,60.3311 85.9722,59.4978 88.5,58.5C 90.7374,60.7481 93.4041,62.0814 96.5,62.5C 96.3893,61.8826 96.056,61.3826 95.5,61C 96.6667,60.8333 97.8333,60.6667 99,60.5C 101.92,61.0432 104.753,61.5432 107.5,62C 107.833,61.6667 108.167,61.3333 108.5,61C 106.623,59.2832 104.623,57.7832 102.5,56.5C 101.537,55.6365 101.537,54.9698 102.5,54.5C 106.306,55.715 110.139,55.715 114,54.5C 116.526,55.0641 119.026,55.7308 121.5,56.5C 124.664,54.3694 125.664,55.3694 124.5,59.5C 123.188,59.1757 122.355,58.5091 122,57.5C 121.235,57.5699 120.735,57.9033 120.5,58.5C 115.985,56.7206 111.318,56.2206 106.5,57C 111.273,59.573 116.106,62.073 121,64.5C 121.692,63.5632 121.525,62.8966 120.5,62.5C 122.311,60.0166 124.145,60.0166 126,62.5C 126.513,61.4734 127.013,60.4734 127.5,59.5C 129.792,58.5316 131.959,58.1982 134,58.5C 138.828,61.8307 143.995,64.4973 149.5,66.5C 148.685,65.1634 147.518,64.1634 146,63.5C 145.312,62.6683 145.479,62.0016 146.5,61.5C 149.853,63.2011 153.186,64.8678 156.5,66.5C 157.167,66.1667 157.833,65.8333 158.5,65.5C 160.173,67.0863 162.173,67.7529 164.5,67.5C 164.427,69.0269 165.094,70.0269 166.5,70.5C 164.064,71.5716 161.897,70.905 160,68.5C 157.904,69.7155 158.071,70.5488 160.5,71C 159.833,71.3333 159.167,71.6667 158.5,72C 161.185,72.5036 163.519,73.6703 165.5,75.5C 166.675,74.1451 167.675,74.3117 168.5,76C 168.167,76.3333 167.833,76.6667 167.5,77C 169.959,77.724 170.959,79.0573 170.5,81C 171.5,81.3333 172.5,81.6667 173.5,82C 173.167,82.3333 172.833,82.6667 172.5,83C 175.626,86.0802 179.626,88.5802 184.5,90.5C 184.245,91.9361 183.912,93.4361 183.5,95C 184.094,95.4643 184.761,95.631 185.5,95.5C 186.263,96.2679 187.263,96.7679 188.5,97C 186.029,97.7063 183.695,97.373 181.5,96C 180.016,94.4263 178.349,93.093 176.5,92C 176.833,91.6667 177.167,91.3333 177.5,91C 176.5,90.6667 175.5,90.3333 174.5,90C 175.451,89.2825 175.617,88.4491 175,87.5C 173.686,86.6872 172.519,85.6872 171.5,84.5C 168.296,83.8324 165.629,82.3324 163.5,80C 160.899,79.0797 158.232,78.413 155.5,78C 156.167,77.6667 156.833,77.3333 157.5,77C 155.338,74.6088 152.838,74.1088 150,75.5C 146.45,73.1005 142.784,71.7672 139,71.5C 138.667,72.1667 138.333,72.8333 138,73.5C 136.181,70.7433 133.848,69.7433 131,70.5C 129.757,68.1671 128.091,67.5004 126,68.5C 121.616,65.4743 116.95,64.141 112,64.5C 109.369,66.1244 106.536,67.291 103.5,68C 103.833,68.3333 104.167,68.6667 104.5,69C 100.174,69.9348 95.5072,70.6015 90.5,71C 88.5471,72.6326 86.3804,73.7993 84,74.5C 81.2184,73.5279 78.385,72.6946 75.5,72C 79.4323,72.5252 83.4323,72.1919 87.5,71C 86.3774,69.9563 85.0441,69.2896 83.5,69C 79.9984,68.718 76.6651,68.5513 73.5,68.5C 72.3044,68.8457 72.3044,69.3457 73.5,70C 72.552,70.4828 71.552,70.6495 70.5,70.5C 70.719,69.325 70.3857,68.325 69.5,67.5C 67.6675,66.7515 66.0009,65.7515 64.5,64.5C 63.5224,64.9767 62.6891,65.6433 62,66.5C 61.6924,65.6919 61.1924,65.0253 60.5,64.5C 58.2906,63.8938 56.124,63.2272 54,62.5C 53.3333,65.1667 52.6667,65.1667 52,62.5C 49.8377,64.4962 47.3377,65.8295 44.5,66.5C 44.918,63.5611 46.418,61.2278 49,59.5C 49.8753,61.5127 51.2087,61.5127 53,59.5C 53.414,59.9574 53.914,60.2907 54.5,60.5C 54.8586,59.0828 56.0253,57.7495 58,56.5C 58.6914,58.8912 59.6914,58.8912 61,56.5C 61.414,56.9574 61.914,57.2907 62.5,57.5C 63.2175,54.942 64.5509,54.2753 66.5,55.5 Z"/></g>
<g><path style="opacity:1" fill="#576b38" d="M 130.5,60.5 C 132.975,60.7467 132.975,61.4134 130.5,62.5C 129.537,62.0302 129.537,61.3635 130.5,60.5 Z"/></g>
<g><path style="opacity:1" fill="#526833" d="M 88.5,56.5 C 91.8561,58.3794 95.5227,58.8794 99.5,58C 100.056,57.6174 100.389,57.1174 100.5,56.5C 101.167,56.5 101.833,56.5 102.5,56.5C 104.623,57.7832 106.623,59.2832 108.5,61C 108.167,61.3333 107.833,61.6667 107.5,62C 104.753,61.5432 101.92,61.0432 99,60.5C 97.8333,60.6667 96.6667,60.8333 95.5,61C 96.056,61.3826 96.3893,61.8826 96.5,62.5C 93.4041,62.0814 90.7374,60.7481 88.5,58.5C 85.9722,59.4978 85.9722,60.3311 88.5,61C 85.7433,61.5837 83.0766,61.2504 80.5,60C 81.3081,59.6924 81.9747,59.1924 82.5,58.5C 81.3984,57.8243 80.3984,57.1577 79.5,56.5C 82.4699,56.4398 85.4699,56.4398 88.5,56.5 Z"/></g>
<g><path style="opacity:1" fill="#37511b" d="M 120.5,58.5 C 121.738,58.81 121.738,59.31 120.5,60C 115.322,60.5651 115.322,61.3984 120.5,62.5C 121.525,62.8966 121.692,63.5632 121,64.5C 116.106,62.073 111.273,59.573 106.5,57C 111.318,56.2206 115.985,56.7206 120.5,58.5 Z"/></g>
<g><path style="opacity:1" fill="#e6e88e" d="M 88.5,56.5 C 92.5651,57.199 96.5651,57.199 100.5,56.5C 100.389,57.1174 100.056,57.6174 99.5,58C 95.5227,58.8794 91.8561,58.3794 88.5,56.5 Z"/></g>
<g><path style="opacity:1" fill="#edee91" d="M 75.5,54.5 C 74.5084,54.6716 73.8417,54.3382 73.5,53.5C 74.4959,53.5858 75.3292,53.2524 76,52.5C 79.4101,53.8741 79.2434,54.5408 75.5,54.5 Z"/></g>
<g><path style="opacity:1" fill="#83925b" d="M 96.5,62.5 C 97.4959,62.5858 98.3292,62.2524 99,61.5C 99.7504,62.1258 100.584,62.6258 101.5,63C 99.6131,63.7796 97.9464,63.6129 96.5,62.5 Z"/></g>
<g><path style="opacity:1" fill="#61753c" d="M 149.5,66.5 C 153.766,66.5349 154.599,67.5349 152,69.5C 150.955,68.6266 150.122,67.6266 149.5,66.5 Z"/></g>
<g><path style="opacity:1" fill="#7e8c55" d="M 164.5,67.5 C 166.359,67.4609 167.692,68.2942 168.5,70C 167.906,70.4643 167.239,70.631 166.5,70.5C 165.094,70.0269 164.427,69.0269 164.5,67.5 Z"/></g>
<g><path style="opacity:1" fill="#dbdf86" d="M 119.5,87.5 C 115.714,88.6953 115.714,89.362 119.5,89.5C 119.389,90.1174 119.056,90.6174 118.5,91C 113.515,93.0715 108.681,92.9049 104,90.5C 103.586,90.9574 103.086,91.2907 102.5,91.5C 102.307,89.8309 101.307,88.1643 99.5,86.5C 99.6667,86.1667 99.8333,85.8333 100,85.5C 100.837,87.0074 102.004,87.5074 103.5,87C 101.346,84.237 101.18,81.4036 103,78.5C 105.389,89.5779 110.722,91.2445 119,83.5C 120.075,79.9331 119.242,76.9331 116.5,74.5C 114.484,75.7059 112.484,75.7059 110.5,74.5C 115.064,71.2157 118.564,72.5491 121,78.5C 121.251,81.5943 120.751,84.5943 119.5,87.5 Z"/></g>
<g><path style="opacity:1" fill="#e0e388" d="M 127.5,77.5 C 128.397,78.5981 129.23,78.5981 130,77.5C 130.692,78.0253 131.192,78.6919 131.5,79.5C 130.359,80.4255 130.359,81.2588 131.5,82C 129.699,82.3173 129.366,82.984 130.5,84C 129.069,84.4652 127.903,85.2986 127,86.5C 126.667,86.1667 126.333,85.8333 126,85.5C 125.333,86.8333 124.667,88.1667 124,89.5C 123.667,88.8333 123.333,88.1667 123,87.5C 122.184,88.8228 121.017,89.4894 119.5,89.5C 119.5,88.8333 119.5,88.1667 119.5,87.5C 121.745,87.4588 122.412,86.6255 121.5,85C 124.167,81.6667 124.167,78.3333 121.5,75C 121.982,73.9916 122.148,72.825 122,71.5C 124.04,73.3702 125.873,75.3702 127.5,77.5 Z"/></g>
<g><path style="opacity:1" fill="#f1f291" d="M 45.5,75.5 C 46.0768,74.2267 46.7435,74.2267 47.5,75.5C 47.0302,76.463 46.3635,76.463 45.5,75.5 Z"/></g>
<g><path style="opacity:1" fill="#425625" d="M 127.5,77.5 C 127.291,78.9217 126.791,80.255 126,81.5C 125.227,79.6476 125.727,78.3143 127.5,77.5 Z"/></g>
<g><path style="opacity:1" fill="#e9ea8e" d="M 144.5,88.5 C 144.5,88.8333 144.5,89.1667 144.5,89.5C 143.105,90.6477 143.272,91.6477 145,92.5C 145.739,91.4258 146.739,90.7591 148,90.5C 151.923,92.1499 156.089,92.9833 160.5,93C 157.532,95.1777 157.865,96.3444 161.5,96.5C 163.5,97.5 165.5,98.5 167.5,99.5C 169.801,100.06 172.134,100.56 174.5,101C 173.833,101.333 173.167,101.667 172.5,102C 174.833,102.333 177.167,102.667 179.5,103C 178.167,103.333 176.833,103.667 175.5,104C 178.167,104.667 178.167,105.333 175.5,106C 176.834,107.166 178.5,107.333 180.5,106.5C 182.643,106.529 183.977,107.196 184.5,108.5C 187.063,108.263 187.063,107.763 184.5,107C 186.5,106.333 188.5,106.333 190.5,107C 190.043,107.414 189.709,107.914 189.5,108.5C 192.443,111.18 192.11,111.847 188.5,110.5C 186.44,112.196 184.107,113.363 181.5,114C 182.833,114.333 184.167,114.667 185.5,115C 184.939,116.566 185.606,117.899 187.5,119C 186.167,120 186.167,121 187.5,122C 182.089,125.093 182.756,126.926 189.5,127.5C 190.436,128.974 191.77,129.974 193.5,130.5C 196.803,132.232 200.303,133.899 204,135.5C 204.383,134.944 204.883,134.611 205.5,134.5C 205.768,136.099 205.434,137.432 204.5,138.5C 201.482,138.665 198.482,138.498 195.5,138C 192.667,134.932 190.001,134.932 187.5,138C 191.742,142.516 196.408,145.682 201.5,147.5C 200.167,150.167 198.833,152.833 197.5,155.5C 193.507,151.433 190.174,151.766 187.5,156.5C 186.761,156.369 186.094,156.536 185.5,157C 187.359,158.558 188.859,160.391 190,162.5C 190.717,161.956 191.217,161.289 191.5,160.5C 192.167,161.167 192.833,161.833 193.5,162.5C 190.21,168.087 186.21,173.087 181.5,177.5C 180.883,177.389 180.383,177.056 180,176.5C 178.906,178.078 178.072,179.745 177.5,181.5C 176.265,181.279 175.265,180.612 174.5,179.5C 173.188,180.46 171.854,180.294 170.5,179C 170.833,178.667 171.167,178.333 171.5,178C 170.234,177.691 169.067,177.191 168,176.5C 167.344,180.002 166.011,180.002 164,176.5C 164.617,178.095 164.284,179.428 163,180.5C 162.333,177.833 161.667,177.833 161,180.5C 160.581,179.328 159.915,178.328 159,177.5C 157.903,179.053 156.57,180.386 155,181.5C 154.683,179.699 154.016,179.366 153,180.5C 152.667,178.833 152.333,177.167 152,175.5C 151.581,176.672 150.915,177.672 150,178.5C 150.771,176.82 150.605,175.153 149.5,173.5C 151.507,174.679 151.84,174.179 150.5,172C 151.715,169.904 152.549,170.071 153,172.5C 153.667,168.5 154.333,168.5 155,172.5C 155.739,171.426 156.739,170.759 158,170.5C 159.563,171.722 161.063,171.722 162.5,170.5C 162.957,172.557 163.957,172.557 165.5,170.5C 167.774,170.447 169.94,171.447 172,173.5C 172.103,171.713 172.769,170.046 174,168.5C 172.125,169.623 169.958,169.623 167.5,168.5C 167.631,167.761 167.464,167.094 167,166.5C 166.333,167.833 165.667,167.833 165,166.5C 164.148,167.571 163.315,168.571 162.5,169.5C 162.631,168.624 162.298,167.957 161.5,167.5C 158.205,168.694 156.705,167.361 157,163.5C 156.333,164.833 155.667,164.833 155,163.5C 154.667,164.167 154.333,164.833 154,165.5C 152.333,164.167 150.667,164.167 149,165.5C 148.667,164.833 148.333,164.167 148,163.5C 146.12,164.93 144.62,164.596 143.5,162.5C 146.833,158.833 150.167,155.167 153.5,151.5C 154.086,151.709 154.586,152.043 155,152.5C 159.248,149.827 163.748,147.827 168.5,146.5C 165.587,144.925 162.754,143.925 160,143.5C 159.5,144 159,144.5 158.5,145C 162.5,145.667 162.5,146.333 158.5,147C 159.016,149.033 158.35,149.033 156.5,147C 157.654,146.086 157.487,145.253 156,144.5C 155.276,146.959 153.943,147.959 152,147.5C 151.667,148.5 151.333,149.5 151,150.5C 150.329,149.748 149.496,149.414 148.5,149.5C 148.953,148.542 149.619,147.708 150.5,147C 148.527,146.505 146.527,146.338 144.5,146.5C 146.895,145.186 149.395,145.186 152,146.5C 152.925,145.953 153.758,145.287 154.5,144.5C 151.567,142.262 151.901,141.262 155.5,141.5C 155.5,140.5 155.5,139.5 155.5,138.5C 156.931,137.918 158.264,137.085 159.5,136C 158.944,135.617 158.611,135.117 158.5,134.5C 159.5,132.833 160.833,131.5 162.5,130.5C 164.139,128.397 166.139,127.731 168.5,128.5C 169.5,128 170.5,127.5 171.5,127C 170.366,125.984 170.699,125.317 172.5,125C 171.667,124.833 170.833,124.667 170,124.5C 167.594,125.616 165.094,126.616 162.5,127.5C 161.558,127.392 160.725,127.059 160,126.5C 159.544,127.744 160.044,128.577 161.5,129C 160.584,129.278 159.918,129.778 159.5,130.5C 157.901,130.232 156.568,130.566 155.5,131.5C 154.448,131.351 153.448,131.517 152.5,132C 152.833,132.333 153.167,132.667 153.5,133C 152.263,133.232 151.263,133.732 150.5,134.5C 147.23,132.449 143.897,131.116 140.5,130.5C 140.167,130.667 139.833,130.833 139.5,131C 140.5,132 141.5,133 142.5,134C 141.906,134.464 141.239,134.631 140.5,134.5C 139.496,133.317 138.662,131.984 138,130.5C 136.237,131.944 134.237,132.944 132,133.5C 129.67,131.968 127.67,132.302 126,134.5C 124.667,134.5 123.333,134.5 122,134.5C 121.5,133.5 121,132.5 120.5,131.5C 123.109,130.24 122.943,129.24 120,128.5C 118.249,130.393 116.582,131.726 115,132.5C 113.956,131.377 113.29,130.044 113,128.5C 112,131.167 111,131.167 110,128.5C 109.581,132.852 108.914,133.185 108,129.5C 107.581,133.852 106.914,134.185 106,130.5C 104.334,131.34 104.167,130.84 105.5,129C 102.852,125.39 101.352,125.89 101,130.5C 100.691,129.234 100.191,128.067 99.5,127C 101.947,125.771 102.113,124.271 100,122.5C 99,124.5 98,126.5 97,128.5C 96.1751,126.299 96.6751,124.466 98.5,123C 97.3816,121.926 96.3816,120.76 95.5,119.5C 94.8333,119.833 94.1667,120.167 93.5,120.5C 92.5,119.167 91.5,117.833 90.5,116.5C 89.7492,117.376 89.2492,118.376 89,119.5C 88.5065,117.866 88.3398,116.199 88.5,114.5C 89.8946,116.054 90.5613,115.721 90.5,113.5C 90.5613,111.279 89.8946,110.946 88.5,112.5C 87.7729,110.046 86.7729,107.713 85.5,105.5C 86.9953,105.585 87.9953,104.919 88.5,103.5C 87.7666,102.913 86.7666,102.913 85.5,103.5C 85.5,103.167 85.5,102.833 85.5,102.5C 86.2679,101.737 86.7679,100.737 87,99.5C 87.6667,102.167 88.3333,102.167 89,99.5C 89.5611,101.725 90.5611,103.725 92,105.5C 94.1135,103.729 93.9468,102.229 91.5,101C 93.8086,99.1351 95.642,99.6351 97,102.5C 98.6921,101.305 100.692,100.638 103,100.5C 104.586,101.376 106.086,102.376 107.5,103.5C 107.5,102.5 107.5,101.5 107.5,100.5C 108.772,101.046 110.106,101.379 111.5,101.5C 115.5,100 119.5,98.5 123.5,97C 123.167,96.6667 122.833,96.3333 122.5,96C 125.681,93.9083 128.681,91.575 131.5,89C 130.483,87.9505 130.316,86.7839 131,85.5C 132.298,81.6923 134.298,80.6923 137,82.5C 139.991,81.1476 143.158,80.481 146.5,80.5C 151.171,80.9634 155.837,81.4634 160.5,82C 157.574,82.2178 154.74,82.7178 152,83.5C 149.501,82.2022 147.167,82.5356 145,84.5C 143.703,83.2164 142.536,83.3831 141.5,85C 142.338,86.1554 143.338,87.3221 144.5,88.5 Z"/></g>
<g><path style="opacity:1" fill="#f1f192" d="M 144.5,89.5 C 144.5,89.1667 144.5,88.8333 144.5,88.5C 145.363,87.537 146.03,87.537 146.5,88.5C 146.043,89.2975 145.376,89.6309 144.5,89.5 Z"/></g>
<g><path style="opacity:1" fill="#6a7d47" d="M 119.5,87.5 C 119.5,88.1667 119.5,88.8333 119.5,89.5C 115.714,89.362 115.714,88.6953 119.5,87.5 Z"/></g>
<g><path style="opacity:1" fill="#2a480f" d="M 36.5,91.5 C 36.2914,92.9217 35.7914,94.255 35,95.5C 34.2274,93.6476 34.7274,92.3143 36.5,91.5 Z"/></g>
<g><path style="opacity:1" fill="#e5e78d" d="M 168.5,91.5 C 170.746,92.2096 173.08,92.7096 175.5,93C 172.905,93.2256 170.405,93.7256 168,94.5C 166.205,93.2805 166.372,92.2805 168.5,91.5 Z"/></g>
<g><path style="opacity:1" fill="#9ba870" d="M 184.5,90.5 C 185.289,90.7828 185.956,91.2828 186.5,92C 186.381,93.1448 186.048,94.3115 185.5,95.5C 184.761,95.631 184.094,95.4643 183.5,95C 183.912,93.4361 184.245,91.9361 184.5,90.5 Z"/></g>
<g><path style="opacity:1" fill="#aab470" d="M 167.5,99.5 C 165.5,98.5 163.5,97.5 161.5,96.5C 161.791,95.3509 162.624,94.6842 164,94.5C 166.954,94.5944 167.121,95.0944 164.5,96C 166.804,96.8952 169.138,97.7285 171.5,98.5C 170.214,98.4764 168.88,98.8097 167.5,99.5 Z"/></g>
<g><path style="opacity:1" fill="#f1f192" d="M 85.5,102.5 C 84.6236,102.631 83.9569,102.298 83.5,101.5C 85.0071,97.6452 85.6738,97.9786 85.5,102.5 Z"/></g>
<g><path style="opacity:1" fill="#99a66e" d="M 68.5,96.5 C 68.3259,98.861 67.9926,101.194 67.5,103.5C 65.3146,103.704 63.3146,104.37 61.5,105.5C 63.8641,102.476 66.1975,99.4759 68.5,96.5 Z"/></g>
<g><path style="opacity:1" fill="#71804c" d="M 85.5,105.5 C 84.1667,104.833 84.1667,104.167 85.5,103.5C 86.7666,102.913 87.7666,102.913 88.5,103.5C 87.9953,104.919 86.9953,105.585 85.5,105.5 Z"/></g>
<g><path style="opacity:1" fill="#a0ab72" d="M 61.5,105.5 C 62.5063,106.396 62.5063,107.062 61.5,107.5C 59.7454,108.904 57.7454,109.904 55.5,110.5C 56.8908,108.11 58.8908,106.443 61.5,105.5 Z"/></g>
<g><path style="opacity:1" fill="#697645" d="M 33.5,111.5 C 33.5569,112.609 33.8902,113.609 34.5,114.5C 32.5923,113.514 31.5923,111.848 31.5,109.5C 31.238,108.022 31.5713,106.689 32.5,105.5C 33.4656,107.396 33.7989,109.396 33.5,111.5 Z"/></g>
<g><path style="opacity:1" fill="#788552" d="M 61.5,107.5 C 61.4207,108.958 60.9207,110.292 60,111.5C 59.6667,111.167 59.3333,110.833 59,110.5C 56.3761,112.035 53.5428,113.202 50.5,114C 45.1771,114.499 39.8437,114.666 34.5,114.5C 33.8902,113.609 33.5569,112.609 33.5,111.5C 34.4584,111.953 35.2917,112.619 36,113.5C 36.804,112.196 37.9707,111.529 39.5,111.5C 42.8056,111.343 45.9723,111.677 49,112.5C 50.7889,110.771 52.9556,110.104 55.5,110.5C 57.7454,109.904 59.7454,108.904 61.5,107.5 Z"/></g>
<g><path style="opacity:1" fill="#899760" d="M 88.5,114.5 C 87.1667,113.833 87.1667,113.167 88.5,112.5C 89.8946,110.946 90.5613,111.279 90.5,113.5C 90.5613,115.721 89.8946,116.054 88.5,114.5 Z"/></g>
<g><path style="opacity:1" fill="#667645" d="M 138.5,123.5 C 139.497,122.287 140.497,122.454 141.5,124C 140.423,124.47 139.423,124.303 138.5,123.5 Z"/></g>
<g><path style="opacity:1" fill="#637542" d="M 173.5,125.5 C 175.035,124.212 176.701,124.212 178.5,125.5C 177.119,126.232 175.452,126.232 173.5,125.5 Z"/></g>
<g><path style="opacity:1" fill="#465e27" d="M 162.5,130.5 C 161.5,130.5 160.5,130.5 159.5,130.5C 159.918,129.778 160.584,129.278 161.5,129C 160.044,128.577 159.544,127.744 160,126.5C 160.725,127.059 161.558,127.392 162.5,127.5C 165.094,126.616 167.594,125.616 170,124.5C 170.833,124.667 171.667,124.833 172.5,125C 170.699,125.317 170.366,125.984 171.5,127C 170.5,127.5 169.5,128 168.5,128.5C 166.139,127.731 164.139,128.397 162.5,130.5 Z"/></g>
<g><path style="opacity:1" fill="#9ba76b" d="M 193.5,130.5 C 191.77,129.974 190.436,128.974 189.5,127.5C 190.721,126.535 192.054,126.702 193.5,128C 194.774,128.977 194.774,129.811 193.5,130.5 Z"/></g>
<g><path style="opacity:1" fill="#98a565" d="M 159.5,130.5 C 160.5,130.5 161.5,130.5 162.5,130.5C 160.833,131.5 159.5,132.833 158.5,134.5C 158.167,134.5 157.833,134.5 157.5,134.5C 157.611,133.883 157.944,133.383 158.5,133C 157.263,132.768 156.263,132.268 155.5,131.5C 156.568,130.566 157.901,130.232 159.5,130.5 Z"/></g>
<g><path style="opacity:1" fill="#36501b" d="M 155.5,131.5 C 156.263,132.268 157.263,132.768 158.5,133C 157.944,133.383 157.611,133.883 157.5,134.5C 155.167,134.5 152.833,134.5 150.5,134.5C 151.263,133.732 152.263,133.232 153.5,133C 153.167,132.667 152.833,132.333 152.5,132C 153.448,131.517 154.448,131.351 155.5,131.5 Z"/></g>
<g><path style="opacity:1" fill="#cfd484" d="M 140.5,134.5 C 139.828,135.267 138.995,135.934 138,136.5C 137.812,134.939 138.645,134.272 140.5,134.5 Z"/></g>
<g><path style="opacity:1" fill="#435a26" d="M 157.5,134.5 C 157.833,134.5 158.167,134.5 158.5,134.5C 158.611,135.117 158.944,135.617 159.5,136C 158.264,137.085 156.931,137.918 155.5,138.5C 155.586,137.504 155.252,136.671 154.5,136C 155.737,135.768 156.737,135.268 157.5,134.5 Z"/></g>
<g><path style="opacity:1" fill="#2e4a13" d="M 204.5,138.5 C 203.696,141.579 202.696,144.579 201.5,147.5C 196.408,145.682 191.742,142.516 187.5,138C 190.001,134.932 192.667,134.932 195.5,138C 198.482,138.498 201.482,138.665 204.5,138.5 Z"/></g>
<g><path style="opacity:1" fill="#cdd384" d="M 150.5,134.5 C 152.833,134.5 155.167,134.5 157.5,134.5C 156.737,135.268 155.737,135.768 154.5,136C 155.252,136.671 155.586,137.504 155.5,138.5C 153.09,139.063 150.757,139.563 148.5,140C 148.833,139.667 149.167,139.333 149.5,139C 148.692,138.692 148.025,138.192 147.5,137.5C 149.078,136.702 150.744,136.202 152.5,136C 151.584,135.722 150.918,135.222 150.5,134.5 Z"/></g>
<g><path style="opacity:1" fill="#8d9960" d="M 144.5,138.5 C 146.76,139.238 146.927,140.238 145,141.5C 143.272,140.648 143.105,139.648 144.5,138.5 Z"/></g>
<g><path style="opacity:1" fill="#5d703d" d="M 168.5,146.5 C 168.687,143.786 169.854,143.119 172,144.5C 172.945,144.095 173.612,143.428 174,142.5C 174.75,143.126 175.584,143.626 176.5,144C 174.99,144.85 173.49,145.683 172,146.5C 170.739,145.342 169.573,145.342 168.5,146.5 Z"/></g>
<g><path style="opacity:1" fill="#8b995d" d="M 144.5,146.5 C 146.527,146.338 148.527,146.505 150.5,147C 149.619,147.708 148.953,148.542 148.5,149.5C 148.953,150.458 149.619,151.292 150.5,152C 149.744,153.38 149.078,153.547 148.5,152.5C 147.164,150.99 145.997,149.323 145,147.5C 144.617,148.056 144.117,148.389 143.5,148.5C 140.814,147.012 141.147,146.345 144.5,146.5 Z"/></g>
<g><path style="opacity:1" fill="#f1f291" d="M 148.5,152.5 C 146.251,151.92 144.585,150.587 143.5,148.5C 144.117,148.389 144.617,148.056 145,147.5C 145.997,149.323 147.164,150.99 148.5,152.5 Z"/></g>
<g><path style="opacity:1" fill="#607341" d="M 179.5,147.5 C 180.847,148.171 182.014,148.171 183,147.5C 185.096,148.715 184.929,149.549 182.5,150C 183.647,151.281 183.313,151.614 181.5,151C 180.177,150.184 179.511,149.017 179.5,147.5 Z"/></g>
<g><path style="opacity:1" fill="#2d4a13" d="M 197.5,155.5 C 196.167,157.833 194.833,160.167 193.5,162.5C 192.833,161.833 192.167,161.167 191.5,160.5C 190.167,159.167 188.833,157.833 187.5,156.5C 190.174,151.766 193.507,151.433 197.5,155.5 Z"/></g>
<g><path style="opacity:1" fill="#324d17" d="M 70.5,204.5 C 68.2143,204.405 66.2143,203.738 64.5,202.5C 65.7997,201.399 66.2997,200.066 66,198.5C 64.9609,199.71 63.7942,200.71 62.5,201.5C 60.7162,201.107 59.0495,200.441 57.5,199.5C 59.6133,196.784 61.6133,193.95 63.5,191C 66.1476,188.95 69.1476,187.784 72.5,187.5C 72.5,188.833 72.5,190.167 72.5,191.5C 73.4511,190.081 73.7845,188.415 73.5,186.5C 69.4363,186.576 65.603,187.576 62,189.5C 61.5,189.167 61,188.833 60.5,188.5C 62.9576,186.545 65.291,184.378 67.5,182C 70.8902,180.875 74.0569,179.375 77,177.5C 80.8854,169.729 84.2187,161.729 87,153.5C 88.5039,157.039 88.8372,160.705 88,164.5C 86.049,166.837 85.549,169.337 86.5,172C 85.392,174.112 83.892,175.946 82,177.5C 78.2999,185.334 76.1332,193.668 75.5,202.5C 73.4471,202.402 71.7804,203.069 70.5,204.5 Z"/></g>
<g><path style="opacity:1" fill="#71814e" d="M 187.5,156.5 C 188.833,157.833 190.167,159.167 191.5,160.5C 191.217,161.289 190.717,161.956 190,162.5C 188.859,160.391 187.359,158.558 185.5,157C 186.094,156.536 186.761,156.369 187.5,156.5 Z"/></g>
<g><path style="opacity:1" fill="#8a975a" d="M 139.5,166.5 C 138.778,166.082 138.278,165.416 138,164.5C 137.333,167.167 136.667,167.167 136,164.5C 135.71,166.044 135.044,167.377 134,168.5C 134.379,166.925 134.212,165.425 133.5,164C 135.191,162.595 137.024,161.428 139,160.5C 140.022,161.354 140.855,162.354 141.5,163.5C 141.154,164.696 140.654,164.696 140,163.5C 139.517,164.448 139.351,165.448 139.5,166.5 Z"/></g>
<g><path style="opacity:1" fill="#6f7f4d" d="M 90.5,165.5 C 89.6618,165.158 89.3284,164.492 89.5,163.5C 90.29,162.391 90.79,161.058 91,159.5C 93.0216,161.754 92.8549,163.754 90.5,165.5 Z"/></g>
<g><path style="opacity:1" fill="#d3d786" d="M 139.5,166.5 C 141.48,166.854 143.48,167.187 145.5,167.5C 147.833,168.832 149.166,170.832 149.5,173.5C 148.735,173.077 147.902,172.743 147,172.5C 145.989,172.892 145.489,173.559 145.5,174.5C 144.481,173.313 143.314,172.313 142,171.5C 141.712,175.174 140.212,176.007 137.5,174C 138.756,173.583 139.423,172.75 139.5,171.5C 140.506,171.062 140.506,170.396 139.5,169.5C 139.5,168.5 139.5,167.5 139.5,166.5 Z"/></g>
<g><path style="opacity:1" fill="#74844e" d="M 167.5,168.5 C 167.19,169.738 166.69,169.738 166,168.5C 165.536,169.094 165.369,169.761 165.5,170.5C 163.957,172.557 162.957,172.557 162.5,170.5C 162.5,170.167 162.5,169.833 162.5,169.5C 163.315,168.571 164.148,167.571 165,166.5C 165.667,167.833 166.333,167.833 167,166.5C 167.464,167.094 167.631,167.761 167.5,168.5 Z"/></g>
<g><path style="opacity:1" fill="#3f5823" d="M 167.5,168.5 C 169.958,169.623 172.125,169.623 174,168.5C 172.769,170.046 172.103,171.713 172,173.5C 169.94,171.447 167.774,170.447 165.5,170.5C 165.369,169.761 165.536,169.094 166,168.5C 166.69,169.738 167.19,169.738 167.5,168.5 Z"/></g>
<g><path style="opacity:1" fill="#859158" d="M 139.5,169.5 C 140.506,170.396 140.506,171.062 139.5,171.5C 136.469,172.268 135.969,171.268 138,168.5C 138.383,169.056 138.883,169.389 139.5,169.5 Z"/></g>
<g><path style="opacity:1" fill="#919d5b" d="M 181.5,177.5 C 180.5,179.167 179.167,180.5 177.5,181.5C 178.072,179.745 178.906,178.078 180,176.5C 180.383,177.056 180.883,177.389 181.5,177.5 Z"/></g>
<g><path style="opacity:1" fill="#405824" d="M 95.5,183.5 C 96.0431,183.56 96.3764,183.893 96.5,184.5C 95.846,186.115 95.346,187.782 95,189.5C 93.6124,190.554 92.1124,190.72 90.5,190C 89.5494,189.282 89.3828,188.449 90,187.5C 92.4632,186.968 94.2965,185.634 95.5,183.5 Z"/></g>
<g><path style="opacity:1" fill="#e1e48d" d="M 72.5,191.5 C 71.9278,193.255 71.0945,194.922 70,196.5C 69.2825,197.451 68.4491,197.617 67.5,197C 68.6635,194.672 70.3302,192.838 72.5,191.5 Z"/></g>
<g><path style="opacity:1" fill="#8d9b64" d="M 87.5,192.5 C 88.7125,193.497 88.5458,194.497 87,195.5C 86.5304,194.423 86.6971,193.423 87.5,192.5 Z"/></g>
<g><path style="opacity:1" fill="#516434" d="M 55.5,198.5 C 54.8333,198.167 54.1667,197.833 53.5,197.5C 58.8904,190.703 59.557,191.037 55.5,198.5 Z"/></g>
<g><path style="opacity:1" fill="#425a25" d="M 93.5,196.5 C 94.4345,197.568 94.7678,198.901 94.5,200.5C 92.8017,204.415 90.8017,204.415 88.5,200.5C 89.6046,198.389 91.2712,197.055 93.5,196.5 Z"/></g>
<g><path style="opacity:1" fill="#7e8d57" d="M 101.5,202.5 C 101.027,203.906 100.027,204.573 98.5,204.5C 101.046,200.967 100.379,198.967 96.5,198.5C 95.8182,199.243 95.1515,199.909 94.5,200.5C 94.7678,198.901 94.4345,197.568 93.5,196.5C 94.5659,195.308 95.3992,195.641 96,197.5C 97,196.167 98,194.833 99,193.5C 99.3333,194.5 99.6667,195.5 100,196.5C 100.333,196.167 100.667,195.833 101,195.5C 101.497,197.81 101.663,200.143 101.5,202.5 Z"/></g>
<g><path style="opacity:1" fill="#c5cb7e" d="M 64.5,202.5 C 63.5084,202.672 62.8417,202.338 62.5,201.5C 63.7942,200.71 64.9609,199.71 66,198.5C 66.2997,200.066 65.7997,201.399 64.5,202.5 Z"/></g>
<g><path style="opacity:1" fill="#5e703c" d="M 135.5,206.5 C 133.565,207.15 131.565,207.483 129.5,207.5C 129.5,206.833 129.5,206.167 129.5,205.5C 130.222,205.082 130.722,204.416 131,203.5C 131.333,204.5 131.667,205.5 132,206.5C 132.333,204.5 132.667,202.5 133,200.5C 133.585,202.661 134.418,204.661 135.5,206.5 Z"/></g>
<g><path style="opacity:1" fill="#38521c" d="M 108.5,202.5 C 108.281,203.675 108.614,204.675 109.5,205.5C 111.207,201.864 112.374,201.864 113,205.5C 113.41,204.099 113.91,202.766 114.5,201.5C 116.368,200.326 117.368,200.993 117.5,203.5C 117.5,204.167 117.5,204.833 117.5,205.5C 116.699,207.042 116.366,208.708 116.5,210.5C 116.167,210.5 115.833,210.5 115.5,210.5C 115.657,209.127 115.49,207.793 115,206.5C 113.302,207.741 111.802,209.074 110.5,210.5C 106.513,211.705 102.513,211.705 98.5,210.5C 97.3586,208.549 97.3586,206.549 98.5,204.5C 100.027,204.573 101.027,203.906 101.5,202.5C 102.397,201.402 103.23,201.402 104,202.5C 106.034,198.828 107.534,198.828 108.5,202.5 Z"/></g>
<g><path style="opacity:1" fill="#a7b376" d="M 114.5,201.5 C 113.91,202.766 113.41,204.099 113,205.5C 112.374,201.864 111.207,201.864 109.5,205.5C 108.614,204.675 108.281,203.675 108.5,202.5C 110.402,200.849 112.402,200.516 114.5,201.5 Z"/></g>
<g><path style="opacity:1" fill="#627441" d="M 141.5,204.5 C 140.833,204.5 140.167,204.5 139.5,204.5C 140.548,202.067 141.214,202.067 141.5,204.5 Z"/></g>
<g><path style="opacity:1" fill="#7d8d55" d="M 121.5,207.5 C 121.167,208.167 120.833,208.833 120.5,209.5C 120.167,209.5 119.833,209.5 119.5,209.5C 119.5,208.5 119.5,207.5 119.5,206.5C 119.158,205.662 118.492,205.328 117.5,205.5C 117.5,204.833 117.5,204.167 117.5,203.5C 118.222,203.082 118.722,202.416 119,201.5C 119.845,203.611 120.678,205.611 121.5,207.5 Z"/></g>
<g><path style="opacity:1" fill="#a5b076" d="M 89.5,209.5 C 89.1667,209.5 88.8333,209.5 88.5,209.5C 88.7148,207.821 88.0481,206.821 86.5,206.5C 86.811,205.522 87.4777,204.855 88.5,204.5C 89.4519,206.045 89.7852,207.712 89.5,209.5 Z"/></g>
<g><path style="opacity:1" fill="#b2bb7b" d="M 129.5,205.5 C 129.5,206.167 129.5,206.833 129.5,207.5C 128.312,206.316 127.145,206.316 126,207.5C 125.722,206.584 125.222,205.918 124.5,205.5C 124.369,204.624 124.702,203.957 125.5,203.5C 126.524,204.853 127.857,205.52 129.5,205.5 Z"/></g>
<g><path style="opacity:1" fill="#485f2b" d="M 124.5,205.5 C 125.222,205.918 125.722,206.584 126,207.5C 127.145,206.316 128.312,206.316 129.5,207.5C 126.781,208.913 123.781,209.58 120.5,209.5C 120.833,208.833 121.167,208.167 121.5,207.5C 121.369,206.761 121.536,206.094 122,205.5C 122.604,209.333 123.437,209.333 124.5,205.5 Z"/></g>
<g><path style="opacity:1" fill="#506531" d="M 86.5,206.5 C 88.0481,206.821 88.7148,207.821 88.5,209.5C 85.5718,209.435 82.9052,208.768 80.5,207.5C 82.6522,206.719 84.6522,206.386 86.5,206.5 Z"/></g>
<g><path style="opacity:1" fill="#475b2b" d="M 119.5,206.5 C 119.5,207.5 119.5,208.5 119.5,209.5C 116.833,208.5 116.833,207.5 119.5,206.5 Z"/></g>
<g><path style="opacity:1" fill="#abb46f" d="M 115.5,210.5 C 113.833,210.5 112.167,210.5 110.5,210.5C 111.802,209.074 113.302,207.741 115,206.5C 115.49,207.793 115.657,209.127 115.5,210.5 Z"/></g>
<g><path style="opacity:1" fill="#cfd586" d="M 117.5,205.5 C 118.492,205.328 119.158,205.662 119.5,206.5C 116.833,207.5 116.833,208.5 119.5,209.5C 118.791,210.404 117.791,210.737 116.5,210.5C 116.366,208.708 116.699,207.042 117.5,205.5 Z"/></g>
</svg>
